<?xml version="1.0" encoding="UTF-8" standalone="no"?>
<!-- Created with Inkscape (http://www.inkscape.org/) -->

<svg
   width="320.31412mm"
   height="100.61028mm"
   viewBox="0 0 320.31411 100.61026"
   version="1.1"
   id="svg1"
   xml:space="preserve"
   sodipodi:docname="logo-zephion-full-dark.svg"
   inkscape:version="1.4 (86a8ad7, 2024-10-11)"
   xmlns:inkscape="http://www.inkscape.org/namespaces/inkscape"
   xmlns:sodipodi="http://sodipodi.sourceforge.net/DTD/sodipodi-0.dtd"
   xmlns="http://www.w3.org/2000/svg"
   xmlns:svg="http://www.w3.org/2000/svg"><sodipodi:namedview
     id="namedview1"
     pagecolor="#ffffff"
     bordercolor="#000000"
     borderopacity="0.25"
     inkscape:showpageshadow="2"
     inkscape:pageopacity="0.0"
     inkscape:pagecheckerboard="0"
     inkscape:deskcolor="#d1d1d1"
     inkscape:document-units="mm"
     inkscape:zoom="0.76536274"
     inkscape:cx="585.99665"
     inkscape:cy="241.71545"
     inkscape:window-width="1718"
     inkscape:window-height="1408"
     inkscape:window-x="2793"
     inkscape:window-y="557"
     inkscape:window-maximized="0"
     inkscape:current-layer="layer1" /><defs
     id="defs1" /><g
     inkscape:label="Layer 1"
     inkscape:groupmode="layer"
     id="layer1"
     transform="translate(4.1422627,-58.998289)"><path
       style="fill:#ffffff;fill-opacity:1"
       d="m 262.29288,126.41143 c -5.03636,-0.90871 -9.45523,-4.16012 -11.5864,-8.52528 -3.52923,-7.22871 -2.24971,-16.19546 3.05525,-21.410964 3.05536,-3.00384 6.87277,-4.4532 11.72915,-4.4532 7.64334,0 13.29484,4.08 15.75923,11.377094 0.79939,2.367 1.01153,7.53124 0.42313,10.30015 -1.25217,5.89238 -5.39748,10.42372 -11.14201,12.17956 -2.11839,0.6475 -6.15525,0.9085 -8.23835,0.53264 z m 7.33705,-6.96565 c 4.5339,-2.14487 6.74317,-7.63001 5.3883,-13.37795 -0.75855,-3.21807 -2.5904,-5.71359 -5.20551,-7.091464 -1.28387,-0.67645 -1.63606,-0.73667 -4.30857,-0.73667 -2.84298,0 -2.95027,0.022 -4.63021,0.94836 -3.32369,1.832824 -4.99205,4.793044 -5.22621,9.273064 -0.31342,5.99655 2.02768,9.87841 6.946,11.5174 1.7265,0.57534 5.25934,0.30785 7.0362,-0.53274 z m -165.91847,4.05875 v -2.38412 l 6.69841,-9.32369 c 8.393,-11.68243 9.17659,-12.792104 9.17659,-12.995314 0,-0.0907 -3.39329,-0.16483 -7.54063,-0.16483 h -7.54062 v -3.04271 -3.04271 h 12.03854 12.03854 v 2.54145 2.54146 l -3.58597,5.000514 c -1.97229,2.75029 -5.53772,7.70858 -7.92319,11.01844 l -4.33722,6.01793 7.92319,0.07 7.92319,0.07 v 3.03883 3.03883 h -12.43542 -12.43541 z m 32.80833,-14.28462 V 92.551156 h 10.78177 10.78177 v 3.04271 3.04271 h -7.47448 -7.47448 v 3.836454 3.83646 h 6.61458 6.61459 v 2.91042 2.91042 h -6.61459 -6.61458 v 3.83233 3.83234 l 7.42691,0.0703 7.42691,0.0703 0.0476,2.97662 0.0476,2.97662 -10.78177,-6e-5 -10.78177,-5e-5 z m 29.89791,0 V 92.551156 l 6.94532,0.002 c 3.81992,0.001 7.71921,0.12641 8.6651,0.27847 5.48697,0.88208 9.01209,5.07377 8.98936,10.689184 -0.0123,3.02965 -0.89163,5.40426 -2.77851,7.50292 -2.35029,2.61409 -5.08766,3.47797 -11.0395,3.48394 l -3.9026,0.004 v 5.68854 5.68854 h -3.43958 -3.43959 z m 14.4486,-0.91982 c 2.19816,-0.65278 3.27849,-2.18906 3.27849,-4.66215 0,-3.646124 -1.88536,-4.954904 -7.44211,-5.166194 l -3.40581,-0.12951 v 5.174254 5.17425 h 3.12698 c 1.98705,0 3.60653,-0.14241 4.44245,-0.39065 z m 17.30139,0.91982 V 92.551156 h 3.30729 3.3073 v 6.61458 6.614594 h 7.01146 7.01145 v -6.614594 -6.61458 h 3.30729 3.3073 v 16.668754 16.66875 h -3.3073 -3.30729 v -6.74688 -6.74687 h -7.01145 -7.01146 v 6.74687 6.74688 h -3.3073 -3.30729 z m 36.5125,0 V 92.551156 h 3.43959 3.43958 v 16.668754 16.66875 h -3.43958 -3.43959 z m 53.975,0.0383 V 92.627716 l 1.78594,-0.16867 c 0.98226,-0.0928 2.27388,-0.16952 2.87025,-0.17055 l 1.08431,-0.002 7.51465,11.355794 c 4.13305,6.24569 7.57417,11.36543 7.64693,11.3772 0.0728,0.0118 0.0988,-5.03881 0.0579,-11.22351 l -0.0744,-11.244904 h 3.31554 3.31554 v 16.668754 16.66875 h -3.28076 -3.28077 l -5.39934,-8.26823 c -2.96963,-4.54753 -6.22602,-9.54729 -7.23642,-11.11059 -1.01039,-1.5633 -1.89727,-2.84322 -1.97084,-2.84427 -0.0736,-0.001 -0.0542,1.03989 0.0431,2.31319 0.0973,1.27331 0.18723,6.27394 0.1999,11.1125 l 0.023,8.7974 h -3.30729 -3.30729 z"
       id="path1"
       sodipodi:nodetypes="sssssssssssscsssccssscccccccssccccccccccccccccccccccccccccccccccccscscccccccssscccsscccccccccccccccccccccccccccccccccccccccssscccccccsscsscccc" /><path
       style="fill:#ffffff;fill-opacity:1"
       d="m 28.967588,155.27186 c -1.97319,-1.31131 -4.65011,-3.62477 -4.43877,-3.83611 0.0624,-0.0624 1.19933,0.22704 2.52656,0.64315 6.57792,2.0623 13.31988,2.14082 18.99945,0.22129 2.48544,-0.84 6.47509,-3.01515 8.98363,-4.89784 1.26026,-0.94584 2.25375,-1.75732 2.20778,-1.8033 -0.046,-0.046 -1.44583,0.0486 -3.11077,0.21019 -4.94962,0.48037 -12.18682,-0.31809 -18.68295,-2.06124 -1.32012,-0.35424 -5.42777,-1.54407 -9.12811,-2.64406 -3.70035,-1.1 -8.19216,-2.29684 -9.98182,-2.65965 -5.89018,-1.19409 -12.16763,-1.13345 -17.75395,0.1715 -1.22235,0.28554 -2.26819,0.47343 -2.32409,0.41754 -0.19585,-0.19585 1.96673,-2.7129 3.25038,-3.78314 5.23203,-4.36221 11.23718,-6.13392 19.78836,-5.83817 4.65413,0.16097 6.68538,0.56724 14.84529,2.96922 13.58685,3.99946 20.63386,4.5185 30.03021,2.21183 7.11366,-1.7463 13.44161,-4.96795 19.63784,-9.9979 1.2692,-1.03031 2.36219,-1.87329 2.42886,-1.87329 0.20489,0 -1.13678,3.12914 -2.54456,5.93462 -3.06514,6.10834 -6.96508,11.60686 -11.71693,16.51969 -4.61192,4.76815 -8.699,7.81688 -14.3287,10.68839 -6.13862,3.13109 -17.51443,6.83268 -28.68771,-0.59272 z m 19.32563,-27.24664 c -3.6888,-0.47277 -9.12304,-1.73815 -16.6372,-3.874 -9.47345,-2.69276 -12.69348,-3.43096 -16.74393,-3.8386 -5.7953,-0.58323 -13.26925,0.54267 -18.96174,2.85645 -0.58132,0.23628 1.69496,-2.94209 3.453,-4.82144 4.26707,-4.56151 8.91414,-6.74305 16.09212,-7.55432 5.4577,-0.61685 9.75213,-0.0101 19.87987,2.80863 8.22202,2.28836 10.56488,2.75898 14.64824,2.94248 5.71385,0.25676 10.49437,-0.9173 15.08719,-3.70531 5.62727,-3.41595 9.29791,-8.31854 10.72654,-14.3266 0.76216,-3.20526 0.63506,-8.55662 -0.27022,-11.37708 -2.97564,-9.27082 -10.94002,-15.5929 -20.38413,-16.18081 -11.00744,-0.68524 -19.97129,8.14294 -17.961,17.68914 0.73751,3.50216 3.25354,6.68297 6.50411,8.22262 1.65484,0.78382 2.01243,0.85227 4.44543,0.85097 2.31308,-10e-4 2.8361,-0.0904 4.15874,-0.7091 0.83209,-0.38923 2.1239,-1.2792 2.87067,-1.97772 1.79791,-1.68173 2.67099,-3.43853 2.83419,-5.70293 0.11999,-1.66498 0.16055,-1.75917 0.64573,-1.49951 1.21032,0.64774 2.56422,2.19139 3.27676,3.73599 0.64352,1.39498 0.7634,1.99122 0.75869,3.77343 -0.008,2.8609 -1.01708,5.06933 -3.3734,7.37972 -3.11706,3.05629 -7.11549,4.49811 -12.36201,4.45769 -3.74552,-0.0289 -6.31699,-0.64074 -9.65729,-2.29794 -4.37586,-2.17097 -7.39786,-5.191223 -9.545,-9.53947 -1.71385,-3.47077 -2.27519,-5.90643 -2.28663,-9.92187 -0.0203,-7.11158 2.51931,-13.04326 7.77263,-18.15452 5.9775,-5.81583 13.79295,-8.66641 22.52802,-8.21678 14.3612,0.73924 26.63404,9.85592 31.49971,23.39906 2.47729,6.89529 2.47734,15.45211 1.5e-4,22.34865 -4.18352,11.64696 -14.39882,20.14457 -27.29873,22.70846 -2.91832,0.58003 -9.10442,0.85744 -11.70051,0.52471 z"
       id="path1-4"
       sodipodi:nodetypes="sssssssssssssssssssssssssssssssssssscssssscsssssssssss" /></g></svg>
